<?xml version="1.0" encoding="utf-8"?>
<!-- Generator: Adobe Illustrator 16.0.0, SVG Export Plug-In . SVG Version: 6.00 Build 0)  -->
<!DOCTYPE svg PUBLIC "-//W3C//DTD SVG 1.1//EN" "http://www.w3.org/Graphics/SVG/1.1/DTD/svg11.dtd">
<svg version="1.1" id="Layer_1" xmlns="http://www.w3.org/2000/svg" xmlns:xlink="http://www.w3.org/1999/xlink" x="0px" y="0px"
	 width="150px" height="50px" viewBox="-10.783 -7.123 150 50" enable-background="new -10.783 -7.123 150 50" xml:space="preserve"
	>
<g>
	<polygon fill="#05057C" points="107.767,19.515 112.067,19.515 109.891,12.94 	"/>
	<path fill="#05057C" d="M-10.783-7.123v50h150v-50H-10.783z M23.291,12.191h-4.849v14.296h-3.224V12.191h-4.849V9.267h12.922
		V12.191z M39.441,26.487h-3.224v-7.123h-6.898v7.123h-3.174V9.267h3.174v7.224h6.898V9.267h3.224V26.487z M54.641,26.487H43.744
		V9.267h10.647v2.85h-7.473v4.474h6.548v2.825h-6.548v4.224h7.723V26.487z M67.418,26.487h-3.175V9.267h3.175V26.487z
		 M78.442,26.487h-6.724V9.267h6.724c4.924,0,7.773,3.749,7.773,8.648C86.215,22.788,83.365,26.487,78.442,26.487z M100.465,26.487
		H89.569V9.267h10.646v2.85h-7.473v4.474h6.549v2.825h-6.549v4.224h7.723V26.487z M114.69,26.487l-1.574-4.174h-6.424l-1.574,4.174
		h-3.398l6.447-17.221h3.449l6.449,17.221H114.69z"/>
	<path fill="#05057C" d="M78.442,12.191h-3.524v11.372h3.524c3.049,0,4.574-2.549,4.574-5.648
		C83.016,14.79,81.49,12.191,78.442,12.191z"/>
</g>
</svg>
