<?xml version="1.0" encoding="utf-8"?>
<!-- Generator: Adobe Illustrator 16.0.0, SVG Export Plug-In . SVG Version: 6.00 Build 0)  -->
<!DOCTYPE svg PUBLIC "-//W3C//DTD SVG 1.1//EN" "http://www.w3.org/Graphics/SVG/1.1/DTD/svg11.dtd">
<svg version="1.1" id="Layer_1" xmlns="http://www.w3.org/2000/svg" xmlns:xlink="http://www.w3.org/1999/xlink" x="0px" y="0px"
	 width="128.434px" height="163.51px" viewBox="0 0 128.434 163.51" enable-background="new 0 0 128.434 163.51"
	 xml:space="preserve">
<g>
	<path fill="#0066E0" d="M64.439,75.567c-2.754,0-5.092,1.973-5.092,6.188s2.338,6.188,5.092,6.188c2.752,0,5.091-1.973,5.091-6.188
		S67.191,75.567,64.439,75.567z"/>
	<path fill="#0066E0" d="M50.751,77.857c0-1.389-0.829-2.096-2.339-2.096h-3.118v4.19h3.118
		C49.923,79.951,50.751,79.246,50.751,77.857z"/>
	<path fill="#0066E0" d="M48.583,82.485h-3.289v5.262h3.289c1.974,0,2.997-0.925,2.997-2.631
		C51.579,83.411,50.557,82.485,48.583,82.485z"/>
	<polygon fill="#0066E0" points="31.072,83.509 35.553,83.509 33.312,76.615 	"/>
	<path fill="#0066E0" d="M14.859,63.877v35.754h98.717V63.877H14.859z M37.77,90.281l-1.412-4.239h-6.091l-1.413,4.239h-2.729
		l5.919-17.053h2.534l5.919,17.053H37.77z M48.949,90.281h-6.334V73.229h6.042c2.825,0,4.774,1.51,4.774,4.458
		c0,1.315-0.731,2.752-1.73,3.289c1.608,0.682,2.607,2.314,2.607,4.288C54.308,88.454,52.31,90.281,48.949,90.281z M64.439,90.478
		c-4.166,0-7.821-2.9-7.821-8.723c0-5.823,3.655-8.722,7.821-8.722s7.819,2.899,7.819,8.722
		C72.258,87.577,68.605,90.478,64.439,90.478z M87.551,84.143c0,4.117-2.654,6.335-6.139,6.335c-3.482,0-6.139-2.242-6.139-6.335
		V73.229h2.68v11.036c0,2.314,1.169,3.678,3.459,3.678c2.289,0,3.459-1.363,3.459-3.678V73.229h2.68V84.143z M102.309,75.761h-4.773
		v14.52h-2.68v-14.52H90.08v-2.533h12.229V75.761z"/>
</g>
</svg>
