<?xml version="1.0" encoding="utf-8"?>
<!-- Generator: Adobe Illustrator 16.0.0, SVG Export Plug-In . SVG Version: 6.00 Build 0)  -->
<!DOCTYPE svg PUBLIC "-//W3C//DTD SVG 1.1//EN" "http://www.w3.org/Graphics/SVG/1.1/DTD/svg11.dtd">
<svg version="1.1" id="Layer_1" xmlns="http://www.w3.org/2000/svg" xmlns:xlink="http://www.w3.org/1999/xlink" x="0px" y="0px"
	 width="128.434px" height="35.754px" viewBox="0 63.877 128.434 35.754" enable-background="new 0 63.877 128.434 35.754"
	 xml:space="preserve">
<g>
	<path fill="#0066E0" d="M63.301,75.71c-2.69,0-4.975,1.927-4.975,6.045s2.284,6.045,4.975,6.045c2.689,0,4.975-1.927,4.975-6.045
		S65.99,75.71,63.301,75.71z"/>
	<path fill="#0066E0" d="M48.645,75.899H45.36v4.236h3.285c1.261,0,2.189-0.643,2.189-2.118S49.906,75.899,48.645,75.899z"/>
	<path fill="#0066E0" d="M32.275,75.71c-2.69,0-4.975,1.927-4.975,6.045s2.284,6.045,4.975,6.045c2.689,0,4.974-1.927,4.974-6.045
		S34.964,75.71,32.275,75.71z"/>
	<path fill="#0066E0" d="M109.271,75.71c-2.689,0-4.975,1.927-4.975,6.045s2.285,6.045,4.975,6.045s4.975-1.927,4.975-6.045
		S111.96,75.71,109.271,75.71z"/>
	<path fill="#0066E0" d="M0,63.877v35.754h128.434V63.877H0z M23.471,75.899h-4.664v14.186h-2.618V75.899h-4.665v-2.475h11.947
		V75.899z M32.275,90.276c-4.07,0-7.641-2.834-7.641-8.521c0-5.688,3.57-8.521,7.641-8.521s7.64,2.833,7.64,8.521
		C39.914,87.442,36.345,90.276,32.275,90.276z M51.977,90.085l-4.689-7.473H45.36v7.473h-2.618v-16.66h5.831
		c3.142,0,4.927,1.761,4.927,4.593c0,2.285-1.167,3.856-3.237,4.403l4.809,7.664H51.977z M63.301,90.276
		c-4.07,0-7.641-2.834-7.641-8.521c0-5.688,3.57-8.521,7.641-8.521s7.64,2.833,7.64,8.521
		C70.941,87.442,67.371,90.276,63.301,90.276z M86.025,90.085h-2.808l-6.831-11.948v11.948h-2.618v-16.66h2.81l6.829,11.995V73.425
		h2.618V90.085z M100.467,75.899h-4.664v14.186h-2.617V75.899H88.52v-2.475h11.947V75.899z M109.271,90.276
		c-4.069,0-7.641-2.834-7.641-8.521c0-5.688,3.571-8.521,7.641-8.521c4.07,0,7.64,2.833,7.64,8.521
		C116.91,87.442,113.341,90.276,109.271,90.276z"/>
</g>
</svg>
