<?xml version="1.0" encoding="utf-8"?>
<!-- Generator: Adobe Illustrator 16.0.0, SVG Export Plug-In . SVG Version: 6.00 Build 0)  -->
<!DOCTYPE svg PUBLIC "-//W3C//DTD SVG 1.1//EN" "http://www.w3.org/Graphics/SVG/1.1/DTD/svg11.dtd">
<svg version="1.1" id="Layer_1" xmlns="http://www.w3.org/2000/svg" xmlns:xlink="http://www.w3.org/1999/xlink" x="0px" y="0px"
	 width="150px" height="50px" viewBox="-10.783 -7.123 150 50" enable-background="new -10.783 -7.123 150 50" xml:space="preserve"
	>
<g>
	<path fill="#05057C" d="M49.392,14.815c0-1.25-0.725-2.725-2.324-2.725h-3.549v5.399h3.449
		C48.643,17.49,49.392,16.09,49.392,14.815z"/>
	<path fill="#05057C" d="M28.318,12.191c-3.124,0-5.549,2.549-5.549,5.699s2.425,5.673,5.549,5.673c3.1,0,5.549-2.523,5.549-5.673
		S31.417,12.191,28.318,12.191z"/>
	<path fill="#05057C" d="M63.768,12.191c-3.125,0-5.549,2.549-5.549,5.699s2.424,5.673,5.549,5.673c3.099,0,5.548-2.523,5.548-5.673
		S66.866,12.191,63.768,12.191z"/>
	<path fill="#05057C" d="M-10.783-7.123v50h150v-50H-10.783z M18.241,12.166h-4.849v14.297h-3.224V12.166H5.32V9.242h12.922V12.166z
		 M28.318,26.713c-4.898,0-8.723-3.975-8.723-8.823c0-4.899,3.824-8.848,8.723-8.848s8.748,3.949,8.748,8.848
		C37.066,22.738,33.216,26.713,28.318,26.713z M48.892,26.463l-4.049-6.125h-1.324v6.125H40.32V9.242h6.898
		c3.799,0,5.498,2.774,5.498,5.574c0,2.474-1.324,4.897-4.374,5.397l4.399,6.25H48.892z M63.768,26.713
		c-4.899,0-8.724-3.975-8.724-8.823c0-4.899,3.824-8.848,8.724-8.848c4.898,0,8.747,3.949,8.747,8.848
		C72.515,22.738,68.666,26.713,63.768,26.713z M88.517,26.463h-2.925L78.944,15.14v11.323h-3.175V9.242h2.975l6.574,11.198V9.242
		h3.199V26.463z M104.291,12.166h-4.849v14.297h-3.225V12.166h-4.849V9.242h12.922V12.166z M114.366,26.713
		c-4.898,0-8.723-3.975-8.723-8.823c0-4.899,3.824-8.848,8.723-8.848c4.9,0,8.748,3.949,8.748,8.848
		C123.115,22.738,119.267,26.713,114.366,26.713z"/>
	<path fill="#05057C" d="M114.366,12.191c-3.123,0-5.548,2.549-5.548,5.699s2.425,5.673,5.548,5.673c3.1,0,5.549-2.523,5.549-5.673
		S117.466,12.191,114.366,12.191z"/>
</g>
</svg>
