<?xml version="1.0" encoding="utf-8"?>
<!-- Generator: Adobe Illustrator 16.0.0, SVG Export Plug-In . SVG Version: 6.00 Build 0)  -->
<!DOCTYPE svg PUBLIC "-//W3C//DTD SVG 1.1//EN" "http://www.w3.org/Graphics/SVG/1.1/DTD/svg11.dtd">
<svg version="1.1" id="Layer_1" xmlns="http://www.w3.org/2000/svg" xmlns:xlink="http://www.w3.org/1999/xlink" x="0px" y="0px"
	 width="128.434px" height="163.51px" viewBox="0 0 128.434 163.51" enable-background="new 0 0 128.434 163.51"
	 xml:space="preserve">
<g>
	<path fill="#FF2A17" d="M53.387,28.481c0.47,0,0.815-0.205,1.035-0.615s0.33-1.03,0.33-1.86v-0.57c0-0.83-0.11-1.45-0.33-1.86
		s-0.565-0.615-1.035-0.615s-0.814,0.205-1.035,0.615c-0.22,0.41-0.33,1.03-0.33,1.86v0.57c0,0.83,0.11,1.45,0.33,1.86
		C52.572,28.276,52.917,28.481,53.387,28.481z"/>
	<path fill="#FF2A17" d="M76.367,28.391c0.439,0,0.762-0.197,0.967-0.593c0.205-0.395,0.308-0.992,0.308-1.792v-0.525
		c0-0.81-0.103-1.417-0.308-1.822c-0.205-0.405-0.527-0.608-0.967-0.608c-0.441,0-0.764,0.195-0.969,0.585
		c-0.205,0.39-0.307,0.99-0.307,1.8v0.57c0,0.81,0.102,1.41,0.307,1.8C75.604,28.196,75.926,28.391,76.367,28.391z"/>
	<path fill="#FF2A17" d="M45.887,28.391c0.44,0,0.76-0.195,0.96-0.585c0.2-0.39,0.301-0.99,0.301-1.8v-0.57
		c0-0.81-0.101-1.41-0.301-1.8c-0.2-0.39-0.52-0.585-0.96-0.585c-0.439,0-0.763,0.198-0.967,0.593
		c-0.205,0.395-0.308,0.993-0.308,1.792v0.555c0,0.8,0.103,1.4,0.308,1.8C45.124,28.191,45.447,28.391,45.887,28.391z"/>
	<path fill="#FF2A17" d="M70.006,23.441c-0.18-0.34-0.449-0.51-0.81-0.51c-0.42,0-0.735,0.165-0.944,0.495
		c-0.211,0.33-0.336,0.825-0.375,1.485h2.399C70.276,24.271,70.187,23.781,70.006,23.441z"/>
	<path fill="#FF2A17" d="M46.982,143.119c0,0.441,0.21,0.66,0.63,0.66c0.28,0,0.5-0.109,0.66-0.33c0.16-0.219,0.24-0.51,0.24-0.869
		v-0.36c-0.473,0-0.847,0.065-1.12,0.195C47.119,142.545,46.982,142.779,46.982,143.119z"/>
	<path fill="#FF2A17" d="M73.362,128.42c-0.121-0.227-0.301-0.34-0.541-0.34c-0.279,0-0.49,0.109-0.629,0.33
		c-0.141,0.22-0.225,0.55-0.25,0.99h1.6C73.542,128.973,73.481,128.646,73.362,128.42z"/>
	<path fill="#FF2A17" d="M63.782,140.1c-0.313,0-0.543,0.137-0.69,0.41c-0.147,0.273-0.22,0.688-0.22,1.24v0.38
		c0,0.554,0.073,0.967,0.22,1.239c0.146,0.273,0.376,0.41,0.69,0.41c0.313,0,0.543-0.137,0.69-0.41
		c0.146-0.272,0.22-0.686,0.22-1.239v-0.38c0-0.553-0.073-0.967-0.22-1.24C64.325,140.236,64.095,140.1,63.782,140.1z"/>
	<path fill="#FF2A17" d="M52.132,128.08c-0.28,0-0.49,0.109-0.63,0.33c-0.14,0.22-0.224,0.55-0.25,0.99h1.6
		c0-0.428-0.06-0.754-0.18-0.98C52.552,128.193,52.372,128.08,52.132,128.08z"/>
	<path fill="#FF2A17" d="M98.621,128.08c-0.28,0-0.49,0.109-0.63,0.33c-0.141,0.22-0.224,0.55-0.25,0.99h1.6
		c0-0.428-0.061-0.754-0.18-0.98C99.041,128.193,98.86,128.08,98.621,128.08z"/>
	<path fill="#FF2A17" d="M51.567,49.512c0.375-0.391,0.562-0.953,0.562-1.688c0-0.649-0.175-1.153-0.525-1.512
		c-0.35-0.358-0.884-0.537-1.6-0.537h-3.65V50.1h3.525C50.63,50.1,51.192,49.904,51.567,49.512z"/>
	<path fill="#FF2A17" d="M0,0v163.51h128.434V0H0z M88.696,21.776h1.306l0.164,0.96h0.09c0.221-0.35,0.496-0.627,0.826-0.833
		c0.329-0.205,0.709-0.307,1.139-0.307c1.371,0,2.056,0.83,2.056,2.49v5.58h-1.604v-5.235c0-0.5-0.09-0.855-0.271-1.065
		s-0.445-0.315-0.795-0.315c-0.37,0-0.681,0.165-0.931,0.495s-0.375,0.755-0.375,1.275v4.845h-1.604V21.776z M87.629,42.925h11.7
		v2.85h-4.25v14.299h-3.2V45.775h-4.25V42.925z M84.977,19.376h1.709v10.29h-1.709V19.376z M74.094,22.624
		c0.445-0.685,1.027-1.027,1.748-1.027c0.39,0,0.74,0.085,1.05,0.255s0.534,0.41,0.675,0.72h0.075v-3.75h1.604v10.845h-1.305
		l-0.18-0.96h-0.075c-0.181,0.37-0.425,0.652-0.735,0.848c-0.31,0.195-0.65,0.292-1.02,0.292c-0.801,0-1.418-0.34-1.853-1.02
		s-0.652-1.72-0.652-3.12C73.427,24.336,73.648,23.309,74.094,22.624z M69.196,21.596c0.931,0,1.625,0.32,2.085,0.96
		s0.689,1.645,0.689,3.015v0.57h-4.109c0.01,0.8,0.125,1.395,0.346,1.785c0.219,0.39,0.569,0.585,1.049,0.585
		c0.34,0,0.613-0.143,0.818-0.428s0.307-0.677,0.307-1.177h1.59c0,0.95-0.25,1.677-0.75,2.182c-0.5,0.505-1.16,0.758-1.979,0.758
		c-1.01,0-1.771-0.335-2.28-1.005c-0.51-0.669-0.765-1.71-0.765-3.12C66.196,22.971,67.196,21.596,69.196,21.596z M61.667,21.776
		h0.75l0.27-2.205h1.335v2.205h1.11v1.365h-1.11v4.665c0,0.45,0.22,0.675,0.66,0.675h0.45v1.17c-0.13,0.05-0.29,0.092-0.48,0.127
		c-0.189,0.035-0.365,0.053-0.524,0.053c-0.61,0-1.048-0.19-1.312-0.57c-0.266-0.38-0.397-0.86-0.397-1.44v-4.68h-0.75V21.776z
		 M57.497,21.776h0.75l0.27-2.205h1.335v2.205h1.11v1.365h-1.11v4.665c0,0.45,0.22,0.675,0.66,0.675h0.45v1.17
		c-0.13,0.05-0.29,0.092-0.48,0.127c-0.189,0.035-0.365,0.053-0.524,0.053c-0.61,0-1.048-0.19-1.312-0.57
		c-0.266-0.38-0.397-0.86-0.397-1.44v-4.68h-0.75V21.776z M59.167,44.837c1.242-1.475,2.996-2.213,5.263-2.213
		c2.266,0,4.021,0.738,5.262,2.213c1.242,1.475,1.863,3.696,1.863,6.663s-0.621,5.188-1.863,6.662
		c-1.241,1.475-2.996,2.213-5.262,2.213c-2.267,0-4.021-0.738-5.263-2.213s-1.862-3.695-1.862-6.662S57.925,46.312,59.167,44.837z
		 M51.114,22.601c0.505-0.67,1.263-1.005,2.272-1.005c1.021,0,1.782,0.337,2.288,1.012c0.505,0.675,0.757,1.713,0.757,3.113
		s-0.252,2.438-0.757,3.112c-0.506,0.675-1.268,1.013-2.288,1.013c-1.01,0-1.768-0.335-2.272-1.005
		c-0.505-0.669-0.757-1.71-0.757-3.12C50.357,24.311,50.609,23.271,51.114,22.601z M54.217,44.275
		c0.908,0.9,1.362,2.083,1.362,3.549c0,1.034-0.254,1.934-0.762,2.701c-0.509,0.766-1.212,1.333-2.113,1.699l3.3,7.85H52.53
		l-2.85-7.149h-3.325v7.149h-3.2V42.925h7.175C52.013,42.925,53.309,43.375,54.217,44.275z M43.007,21.776h1.306l0.165,0.96h0.074
		c0.19-0.37,0.44-0.652,0.75-0.847c0.311-0.195,0.65-0.292,1.021-0.292c0.8,0,1.417,0.34,1.853,1.02
		c0.435,0.68,0.652,1.72,0.652,3.12c0,1.37-0.223,2.398-0.668,3.083c-0.444,0.685-1.027,1.028-1.747,1.028
		c-0.4,0-0.755-0.083-1.065-0.248c-0.31-0.165-0.529-0.397-0.659-0.698h-0.075v3.36h-1.605V21.776z M34.172,26.366h1.771
		l-0.016,0.27c0,0.53,0.163,0.947,0.488,1.252c0.324,0.305,0.757,0.458,1.297,0.458c0.59,0,1.033-0.127,1.328-0.383
		c0.295-0.255,0.442-0.587,0.442-0.998c0-0.35-0.096-0.637-0.285-0.862c-0.19-0.225-0.423-0.4-0.697-0.525
		c-0.275-0.125-0.663-0.272-1.163-0.442c-0.63-0.2-1.143-0.403-1.537-0.608c-0.396-0.205-0.732-0.507-1.013-0.907
		s-0.42-0.93-0.42-1.59c0-0.91,0.32-1.61,0.96-2.1s1.445-0.735,2.415-0.735s1.763,0.248,2.378,0.743
		c0.614,0.495,0.922,1.243,0.922,2.243v0.18h-1.755v-0.165c0-0.459-0.14-0.825-0.42-1.095s-0.655-0.405-1.125-0.405
		c-0.49,0-0.88,0.11-1.17,0.33c-0.29,0.22-0.435,0.515-0.435,0.885c0,0.3,0.09,0.547,0.27,0.742c0.18,0.195,0.405,0.353,0.675,0.473
		c0.271,0.12,0.64,0.255,1.11,0.405c0.649,0.2,1.178,0.4,1.582,0.6c0.405,0.2,0.753,0.502,1.043,0.908
		c0.29,0.405,0.435,0.933,0.435,1.583c0,1.12-0.317,1.938-0.952,2.453s-1.508,0.772-2.617,0.772c-0.65,0-1.243-0.115-1.778-0.345
		c-0.534-0.23-0.96-0.583-1.274-1.058c-0.315-0.475-0.473-1.062-0.473-1.762L34.172,26.366z M21.405,60.074h-3.2V45.775h-4.25v-2.85
		h11.7v2.85h-4.25V60.074z M27.302,131.67c-0.473,0.6-1.137,0.9-1.99,0.9h-2.2v-6.86h2.2c0.853,0,1.517,0.283,1.99,0.851
		c0.474,0.566,0.71,1.393,0.71,2.479C28.012,130.193,27.776,131.07,27.302,131.67z M28.417,58.162
		c-1.242-1.475-1.862-3.695-1.862-6.662s0.621-5.188,1.862-6.663c1.242-1.475,2.996-2.213,5.263-2.213
		c2.266,0,4.021,0.738,5.262,2.213c1.242,1.475,1.863,3.696,1.863,6.663s-0.621,5.188-1.863,6.662s-2.996,2.213-5.262,2.213
		C31.413,60.375,29.659,59.637,28.417,58.162z M30.203,132.57h-1.07v-5.26h1.07V132.57z M30.203,126.39h-1.07v-1.05h1.07V126.39z
		 M31.257,130.949c0.003-0.02,0.005-0.033,0.005-0.039h1.1v0.08c0,0.273,0.073,0.477,0.22,0.609c0.146,0.134,0.326,0.2,0.54,0.2
		c0.2,0,0.373-0.056,0.52-0.165c0.146-0.109,0.22-0.268,0.22-0.475c0-0.227-0.083-0.396-0.25-0.506
		c-0.167-0.109-0.423-0.215-0.77-0.314c-0.32-0.1-0.58-0.198-0.78-0.295c-0.2-0.097-0.37-0.248-0.51-0.455
		c-0.14-0.207-0.21-0.483-0.21-0.83c0-0.5,0.167-0.887,0.5-1.16s0.767-0.41,1.3-0.41c0.5,0,0.906,0.133,1.22,0.396
		s0.47,0.608,0.47,1.034l-0.01,0.221h-1.09v-0.04c-0.014-0.479-0.227-0.72-0.64-0.72c-0.207,0-0.367,0.057-0.48,0.17
		s-0.17,0.254-0.17,0.42c0,0.199,0.077,0.347,0.23,0.439c0.153,0.094,0.393,0.188,0.72,0.28c0.326,0.094,0.593,0.188,0.8,0.285
		s0.385,0.253,0.535,0.47c0.15,0.217,0.225,0.509,0.225,0.875c0,0.58-0.168,1.004-0.505,1.271s-0.792,0.399-1.365,0.399
		c-0.587,0-1.039-0.149-1.355-0.449c-0.317-0.301-0.475-0.693-0.475-1.18C31.252,131.006,31.254,130.97,31.257,130.949z
		 M35.592,144.57h-4.01v-6.86h1.15v5.8h2.86V144.57z M35.912,129.939c0-0.939,0.156-1.633,0.47-2.08
		c0.313-0.446,0.79-0.67,1.43-0.67c1.173,0,1.76,0.697,1.76,2.09h-1.1c0-0.406-0.052-0.705-0.155-0.895s-0.271-0.285-0.505-0.285
		c-0.273,0-0.472,0.137-0.595,0.41c-0.123,0.273-0.185,0.688-0.185,1.24v0.38c0,0.554,0.063,0.967,0.19,1.239
		c0.126,0.273,0.333,0.41,0.62,0.41c0.233,0,0.403-0.098,0.51-0.295c0.106-0.196,0.16-0.491,0.16-0.885h1.06
		c0,0.674-0.148,1.19-0.445,1.551c-0.297,0.359-0.725,0.539-1.285,0.539c-0.667,0-1.155-0.221-1.465-0.664
		S35.912,130.887,35.912,129.939z M39.967,144.015c-0.337,0.45-0.845,0.675-1.525,0.675c-0.674,0-1.179-0.223-1.515-0.67
		c-0.337-0.446-0.505-1.14-0.505-2.08c0-0.939,0.168-1.633,0.505-2.08c0.336-0.446,0.841-0.67,1.515-0.67
		c0.68,0,1.188,0.226,1.525,0.676c0.336,0.449,0.505,1.141,0.505,2.074S40.304,143.564,39.967,144.015z M41.037,132.02
		c-0.337-0.446-0.505-1.14-0.505-2.08c0-0.939,0.168-1.633,0.505-2.08c0.336-0.446,0.841-0.67,1.515-0.67
		c0.68,0,1.188,0.226,1.525,0.676c0.336,0.449,0.505,1.141,0.505,2.074s-0.168,1.625-0.505,2.075
		c-0.337,0.45-0.845,0.675-1.525,0.675C41.878,132.689,41.374,132.467,41.037,132.02z M42.772,143.369
		c0.126,0.273,0.333,0.41,0.62,0.41c0.233,0,0.403-0.098,0.51-0.295c0.106-0.196,0.16-0.491,0.16-0.885h1.06
		c0,0.674-0.148,1.19-0.445,1.551c-0.297,0.359-0.725,0.539-1.285,0.539c-0.667,0-1.155-0.221-1.465-0.664s-0.465-1.139-0.465-2.086
		c0-0.939,0.156-1.633,0.47-2.08c0.313-0.446,0.79-0.67,1.43-0.67c1.173,0,1.76,0.697,1.76,2.09h-1.1
		c0-0.406-0.052-0.705-0.155-0.895s-0.271-0.285-0.505-0.285c-0.273,0-0.472,0.137-0.595,0.41c-0.123,0.273-0.185,0.688-0.185,1.24
		v0.38C42.582,142.684,42.645,143.097,42.772,143.369z M46.382,127.311l0.69,2.399c0.066,0.233,0.153,0.61,0.26,1.13l0.08,0.359
		h0.04l0.07-0.369c0.014-0.074,0.047-0.24,0.1-0.5s0.104-0.471,0.15-0.631l0.68-2.389h1.08l-1.59,5.26h-1.11l-1.59-5.26H46.382z
		 M50.132,144.529c-0.2,0.101-0.417,0.15-0.65,0.15c-0.227,0-0.418-0.062-0.575-0.186c-0.157-0.123-0.265-0.287-0.325-0.494h-0.05
		c-0.153,0.227-0.333,0.398-0.54,0.515s-0.463,0.175-0.77,0.175c-0.34,0-0.648-0.109-0.925-0.33
		c-0.277-0.22-0.415-0.604-0.415-1.149c0-0.673,0.229-1.144,0.685-1.41s1.105-0.399,1.945-0.399V140.8
		c0-0.227-0.046-0.403-0.14-0.53c-0.094-0.127-0.264-0.189-0.51-0.189c-0.24,0-0.415,0.062-0.525,0.189s-0.165,0.28-0.165,0.461
		v0.139h-1.05c-0.007-0.039-0.01-0.113-0.01-0.219c0-0.453,0.16-0.811,0.48-1.07c0.32-0.26,0.743-0.391,1.27-0.391
		c0.573,0,1.003,0.133,1.29,0.396s0.43,0.638,0.43,1.125v2.72c0,0.12,0.026,0.209,0.08,0.266c0.053,0.057,0.12,0.084,0.2,0.084h0.27
		V144.529z M52.032,144.57h-1.07v-7.23h1.07V144.57z M53.982,130.22h-2.74c0.007,0.534,0.083,0.931,0.23,1.19s0.38,0.39,0.7,0.39
		c0.227,0,0.408-0.095,0.545-0.285s0.205-0.451,0.205-0.784h1.06c0,0.633-0.167,1.117-0.5,1.455
		c-0.333,0.336-0.773,0.504-1.32,0.504c-0.673,0-1.18-0.223-1.52-0.67c-0.34-0.446-0.51-1.14-0.51-2.08c0-1.833,0.667-2.75,2-2.75
		c0.62,0,1.083,0.214,1.39,0.641c0.306,0.426,0.46,1.097,0.46,2.01V130.22z M54.326,111.51h19.781v2H54.326V111.51z M60.382,126.73
		v-1.021h4.66v1.021h-1.76v5.84h-1.14v-5.84H60.382z M55.112,127.311h0.87l0.13,0.739h0.06c0.18-0.573,0.48-0.86,0.9-0.86
		c0.12,0,0.222,0.012,0.305,0.035s0.135,0.039,0.155,0.045v1.051h-0.37c-0.293,0-0.53,0.095-0.71,0.285
		c-0.18,0.189-0.27,0.501-0.27,0.935v3.03h-1.07V127.311z M60.521,144.57h-1.15v-3h-2.36v3h-1.15v-6.86h1.15v2.84h2.36v-2.84h1.15
		V144.57z M65.307,144.015c-0.337,0.45-0.845,0.675-1.525,0.675c-0.674,0-1.179-0.223-1.515-0.67
		c-0.337-0.446-0.505-1.14-0.505-2.08c0-0.939,0.168-1.633,0.505-2.08c0.336-0.446,0.841-0.67,1.515-0.67
		c0.68,0,1.188,0.226,1.525,0.676c0.337,0.449,0.505,1.141,0.505,2.074S65.644,143.564,65.307,144.015z M68.831,140.22h-0.739v3.11
		c0,0.3,0.146,0.449,0.44,0.449h0.299v0.781c-0.086,0.033-0.193,0.061-0.319,0.084c-0.127,0.023-0.243,0.035-0.351,0.035
		c-0.406,0-0.697-0.127-0.875-0.38c-0.176-0.253-0.265-0.573-0.265-0.96v-3.12h-0.5v-0.909h0.5l0.181-1.471h0.89v1.471h0.739V140.22
		z M69.702,132.57h-1.07v-3.49c0-0.334-0.061-0.57-0.18-0.711c-0.121-0.139-0.297-0.209-0.531-0.209
		c-0.246,0-0.453,0.109-0.619,0.33c-0.167,0.22-0.25,0.503-0.25,0.85v3.23h-1.07v-7.23h1.07v2.529h0.04
		c0.134-0.206,0.305-0.371,0.515-0.494s0.451-0.186,0.725-0.186c0.914,0,1.371,0.554,1.371,1.66V132.57z M71.331,132.02
		c-0.34-0.446-0.51-1.14-0.51-2.08c0-1.833,0.667-2.75,2-2.75c0.621,0,1.084,0.214,1.391,0.641c0.307,0.426,0.46,1.097,0.46,2.01
		v0.38h-2.74c0.007,0.534,0.083,0.931,0.229,1.19s0.381,0.39,0.701,0.39c0.227,0,0.408-0.095,0.545-0.285s0.205-0.451,0.205-0.784
		h1.06c0,0.633-0.167,1.117-0.5,1.455c-0.333,0.336-0.773,0.504-1.32,0.504C72.179,132.689,71.672,132.467,71.331,132.02z
		 M76.106,144.175c-0.424,0.343-1.005,0.515-1.745,0.515c-0.434,0-0.829-0.076-1.185-0.229c-0.357-0.153-0.641-0.388-0.851-0.705
		c-0.21-0.316-0.315-0.708-0.315-1.175l0.011-0.211h1.18l-0.01,0.181c0,0.354,0.108,0.632,0.325,0.835s0.505,0.305,0.865,0.305
		c0.393,0,0.688-0.084,0.885-0.254c0.196-0.171,0.295-0.393,0.295-0.666c0-0.232-0.063-0.425-0.189-0.574
		c-0.127-0.15-0.282-0.268-0.466-0.351c-0.183-0.083-0.441-0.182-0.774-0.295c-0.42-0.134-0.762-0.269-1.025-0.405
		s-0.488-0.338-0.676-0.604c-0.186-0.267-0.279-0.62-0.279-1.06c0-0.607,0.213-1.074,0.641-1.4c0.426-0.326,0.963-0.49,1.609-0.49
		s1.175,0.165,1.585,0.495s0.615,0.828,0.615,1.495v0.119h-1.171v-0.109c0-0.307-0.093-0.55-0.279-0.73
		c-0.187-0.18-0.437-0.27-0.75-0.27c-0.326,0-0.587,0.073-0.779,0.221c-0.194,0.146-0.291,0.343-0.291,0.59
		c0,0.199,0.061,0.364,0.18,0.494c0.121,0.131,0.271,0.235,0.451,0.315c0.18,0.08,0.426,0.17,0.739,0.271
		c0.434,0.133,0.785,0.266,1.056,0.399c0.27,0.134,0.501,0.335,0.694,0.604c0.193,0.271,0.29,0.622,0.29,1.056
		C76.741,143.287,76.53,143.832,76.106,144.175z M77.117,49.725c-0.159-0.333-0.271-0.566-0.338-0.699l-0.1,0.074
		c0,0.1,0.008,0.292,0.024,0.575c0.017,0.284,0.025,0.567,0.025,0.851v9.549h-2.825V42.925h2.825l5.3,9.45
		c0.116,0.184,0.263,0.463,0.438,0.838s0.287,0.629,0.338,0.762l0.074-0.074l-0.024-1.426v-9.55h2.85v17.149h-2.85l-5.3-9.449
		C77.421,50.358,77.275,50.059,77.117,49.725z M84.361,126.39v-1.05h1.07v1.05H84.361z M85.432,127.311v5.26h-1.07v-5.26H85.432z
		 M81.347,144.005c-0.297,0.456-0.686,0.685-1.166,0.685c-0.266,0-0.503-0.055-0.709-0.164c-0.207-0.11-0.354-0.266-0.44-0.465
		h-0.05v2.239h-1.07v-6.989h0.87l0.11,0.639h0.05c0.126-0.246,0.293-0.435,0.5-0.564c0.206-0.13,0.433-0.195,0.68-0.195
		c0.534,0,0.945,0.227,1.235,0.68c0.29,0.454,0.436,1.147,0.436,2.08C81.792,142.863,81.644,143.549,81.347,144.005z M79.491,129.57
		v3h-1.15v-6.86h1.15v2.84h2.36v-2.84h1.149v6.86h-1.149v-3H79.491z M86.356,144.015c-0.337,0.45-0.846,0.675-1.525,0.675
		c-0.674,0-1.178-0.223-1.515-0.67c-0.337-0.446-0.505-1.14-0.505-2.08c0-0.939,0.168-1.633,0.505-2.08
		c0.337-0.446,0.841-0.67,1.515-0.67c0.68,0,1.188,0.226,1.525,0.676c0.336,0.449,0.505,1.141,0.505,2.074
		S86.692,143.564,86.356,144.015z M89.882,140.22h-0.74v3.11c0,0.3,0.146,0.449,0.439,0.449h0.301v0.781
		c-0.087,0.033-0.193,0.061-0.32,0.084s-0.244,0.035-0.35,0.035c-0.407,0-0.699-0.127-0.875-0.38
		c-0.178-0.253-0.266-0.573-0.266-0.96v-3.12h-0.5v-0.909h0.5l0.18-1.471h0.891v1.471h0.74V140.22z M90.441,132.57h-0.87
		l-0.12-0.641h-0.05c-0.12,0.247-0.283,0.436-0.49,0.564c-0.207,0.131-0.434,0.195-0.68,0.195c-0.533,0-0.945-0.227-1.234-0.68
		c-0.291-0.453-0.436-1.146-0.436-2.08c0-0.913,0.148-1.598,0.445-2.055c0.296-0.457,0.685-0.686,1.164-0.686
		c0.26,0,0.494,0.057,0.701,0.17c0.206,0.113,0.355,0.273,0.449,0.48h0.051v-2.5h1.069V132.57z M93.767,144.29
		c-0.337,0.267-0.792,0.399-1.365,0.399c-0.587,0-1.039-0.149-1.355-0.449c-0.316-0.301-0.475-0.693-0.475-1.18
		c0-0.055,0.002-0.091,0.005-0.111c0.003-0.02,0.005-0.033,0.005-0.039h1.1v0.08c0,0.273,0.074,0.477,0.221,0.609
		c0.146,0.134,0.326,0.2,0.54,0.2c0.2,0,0.373-0.056,0.521-0.165c0.146-0.109,0.219-0.268,0.219-0.475
		c0-0.227-0.083-0.396-0.25-0.506c-0.166-0.109-0.423-0.215-0.77-0.314c-0.32-0.1-0.58-0.198-0.779-0.295
		c-0.201-0.097-0.371-0.248-0.511-0.455s-0.21-0.483-0.21-0.83c0-0.5,0.166-0.887,0.5-1.16s0.767-0.41,1.301-0.41
		c0.5,0,0.906,0.133,1.219,0.396c0.314,0.263,0.471,0.608,0.471,1.034l-0.01,0.221h-1.09v-0.04c-0.014-0.479-0.227-0.72-0.641-0.72
		c-0.207,0-0.367,0.057-0.48,0.17s-0.17,0.254-0.17,0.42c0,0.199,0.077,0.347,0.23,0.439c0.153,0.094,0.393,0.188,0.721,0.28
		c0.326,0.094,0.593,0.188,0.799,0.285c0.207,0.097,0.385,0.253,0.535,0.47s0.225,0.509,0.225,0.875
		C94.271,143.6,94.103,144.023,93.767,144.29z M94.511,131.93h-0.049c-0.121,0.247-0.283,0.436-0.49,0.564
		c-0.207,0.131-0.434,0.195-0.68,0.195c-0.534,0-0.945-0.227-1.235-0.68s-0.435-1.146-0.435-2.08c0-0.913,0.147-1.598,0.444-2.055
		c0.296-0.457,0.685-0.686,1.165-0.686c0.26,0,0.493,0.057,0.7,0.17c0.206,0.113,0.356,0.273,0.45,0.48h0.05v-2.5h1.069v7.23h-0.869
		L94.511,131.93z M96.771,144.57h-1.25V143.3h1.25V144.57z M96.511,142.689h-0.75l-0.319-4.979h1.39L96.511,142.689z
		 M100.472,130.22h-2.74c0.006,0.534,0.083,0.931,0.229,1.19s0.38,0.39,0.7,0.39c0.227,0,0.408-0.095,0.545-0.285
		s0.205-0.451,0.205-0.784h1.061c0,0.633-0.168,1.117-0.5,1.455c-0.334,0.336-0.773,0.504-1.32,0.504
		c-0.674,0-1.18-0.223-1.521-0.67c-0.34-0.446-0.51-1.14-0.51-2.08c0-1.833,0.667-2.75,2-2.75c0.62,0,1.083,0.214,1.39,0.641
		c0.307,0.426,0.461,1.097,0.461,2.01V130.22z M105.321,132.57h-1.07v-3.49c0-0.334-0.06-0.57-0.18-0.711
		c-0.12-0.139-0.297-0.209-0.53-0.209c-0.246,0-0.453,0.109-0.62,0.33c-0.166,0.22-0.25,0.503-0.25,0.85v3.23h-1.069v-5.26h0.87
		l0.109,0.639h0.061c0.146-0.232,0.33-0.418,0.55-0.555s0.473-0.205,0.76-0.205c0.913,0,1.37,0.554,1.37,1.66V132.57z
		 M112.617,58.162c-1.242,1.475-2.996,2.213-5.263,2.213s-4.021-0.738-5.263-2.213s-1.862-3.695-1.862-6.662s0.62-5.188,1.862-6.663
		c1.242-1.475,2.996-2.213,5.263-2.213s4.021,0.738,5.263,2.213c1.24,1.475,1.861,3.696,1.861,6.663S113.857,56.688,112.617,58.162z
		"/>
	<path fill="#FF2A17" d="M64.43,57.625c1.25,0,2.199-0.479,2.85-1.438s0.975-2.312,0.975-4.062v-1.25
		c0-1.75-0.324-3.104-0.975-4.063c-0.65-0.958-1.6-1.438-2.85-1.438s-2.2,0.479-2.85,1.438c-0.65,0.959-0.975,2.313-0.975,4.063
		v1.25c0,1.75,0.325,3.104,0.975,4.062S63.18,57.625,64.43,57.625z"/>
	<path fill="#FF2A17" d="M107.354,45.375c-1.25,0-2.2,0.479-2.851,1.438c-0.649,0.959-0.975,2.313-0.975,4.063v1.25
		c0,1.75,0.325,3.104,0.975,4.062c0.65,0.959,1.601,1.438,2.851,1.438s2.2-0.479,2.851-1.438c0.649-0.959,0.975-2.312,0.975-4.062
		v-1.25c0-1.75-0.325-3.104-0.975-4.063C109.555,45.854,108.604,45.375,107.354,45.375z"/>
	<path fill="#FF2A17" d="M36.53,56.188c0.65-0.959,0.975-2.312,0.975-4.062v-1.25c0-1.75-0.325-3.104-0.975-4.063
		c-0.65-0.958-1.6-1.438-2.85-1.438s-2.2,0.479-2.85,1.438c-0.65,0.959-0.975,2.313-0.975,4.063v1.25
		c0,1.75,0.325,3.104,0.975,4.062s1.6,1.438,2.85,1.438S35.88,57.146,36.53,56.188z"/>
	<path fill="#FF2A17" d="M25.203,126.73h-0.94v4.819h0.94c0.513,0,0.913-0.191,1.2-0.575c0.287-0.383,0.43-0.945,0.43-1.685v-0.5
		c0-0.673-0.144-1.185-0.43-1.535S25.716,126.73,25.203,126.73z"/>
	<path fill="#FF2A17" d="M43.242,131.369c0.146-0.272,0.22-0.686,0.22-1.239v-0.38c0-0.553-0.073-0.967-0.22-1.24
		c-0.147-0.273-0.377-0.41-0.69-0.41c-0.313,0-0.543,0.137-0.69,0.41c-0.147,0.273-0.22,0.688-0.22,1.24v0.38
		c0,0.554,0.073,0.967,0.22,1.239c0.146,0.273,0.376,0.41,0.69,0.41C42.865,131.779,43.095,131.643,43.242,131.369z"/>
	<path fill="#FF2A17" d="M38.442,140.1c-0.313,0-0.543,0.137-0.69,0.41c-0.147,0.273-0.22,0.688-0.22,1.24v0.38
		c0,0.554,0.073,0.967,0.22,1.239c0.146,0.273,0.376,0.41,0.69,0.41c0.313,0,0.543-0.137,0.69-0.41
		c0.146-0.272,0.22-0.686,0.22-1.239v-0.38c0-0.553-0.073-0.967-0.22-1.24C38.985,140.236,38.755,140.1,38.442,140.1z"/>
	<path fill="#FF2A17" d="M93.581,128.16c-0.293,0-0.508,0.13-0.645,0.39c-0.137,0.261-0.205,0.66-0.205,1.2v0.38
		c0,0.54,0.068,0.94,0.205,1.2s0.352,0.39,0.645,0.39s0.509-0.132,0.646-0.396c0.136-0.263,0.205-0.661,0.205-1.194v-0.351
		c0-0.539-0.069-0.944-0.205-1.215C94.09,128.295,93.874,128.16,93.581,128.16z"/>
	<path fill="#FF2A17" d="M79.831,140.16c-0.293,0-0.508,0.131-0.645,0.395s-0.205,0.662-0.205,1.195v0.369
		c0,0.534,0.068,0.934,0.205,1.201c0.137,0.266,0.352,0.399,0.645,0.399s0.507-0.13,0.641-0.39c0.133-0.26,0.199-0.66,0.199-1.2
		v-0.38c0-0.54-0.066-0.939-0.199-1.2C80.338,140.29,80.124,140.16,79.831,140.16z"/>
	<path fill="#FF2A17" d="M84.831,140.1c-0.312,0-0.543,0.137-0.689,0.41s-0.221,0.688-0.221,1.24v0.38
		c0,0.554,0.074,0.967,0.221,1.239c0.146,0.273,0.377,0.41,0.689,0.41c0.313,0,0.543-0.137,0.69-0.41
		c0.146-0.272,0.22-0.686,0.22-1.239v-0.38c0-0.553-0.073-0.967-0.22-1.24C85.374,140.236,85.145,140.1,84.831,140.1z"/>
	<path fill="#FF2A17" d="M88.521,128.16c-0.294,0-0.509,0.13-0.646,0.39c-0.137,0.261-0.205,0.66-0.205,1.2v0.38
		c0,0.54,0.068,0.94,0.205,1.2s0.352,0.39,0.646,0.39c0.293,0,0.509-0.132,0.646-0.396c0.136-0.263,0.205-0.661,0.205-1.194v-0.351
		c0-0.539-0.069-0.944-0.205-1.215C89.03,128.295,88.814,128.16,88.521,128.16z"/>
</g>
</svg>
