<?xml version="1.0" encoding="utf-8"?>
<!-- Generator: Adobe Illustrator 16.0.0, SVG Export Plug-In . SVG Version: 6.00 Build 0)  -->
<!DOCTYPE svg PUBLIC "-//W3C//DTD SVG 1.1//EN" "http://www.w3.org/Graphics/SVG/1.1/DTD/svg11.dtd">
<svg version="1.1" id="Layer_1" xmlns="http://www.w3.org/2000/svg" xmlns:xlink="http://www.w3.org/1999/xlink" x="0px" y="0px"
	 width="128.434px" height="35.754px" viewBox="0 0 128.434 35.754" enable-background="new 0 0 128.434 35.754"
	 xml:space="preserve">
<g>
	<path fill="#05057C" d="M63.301,11.833c-2.69,0-4.975,1.927-4.975,6.045s2.283,6.045,4.975,6.045c2.689,0,4.975-1.927,4.975-6.045
		S65.99,11.833,63.301,11.833z"/>
	<path fill="#05057C" d="M48.645,12.021H45.36v4.236h3.285c1.262,0,2.189-0.643,2.189-2.117
		C50.834,12.665,49.906,12.021,48.645,12.021z"/>
	<path fill="#05057C" d="M32.275,11.833c-2.689,0-4.975,1.927-4.975,6.045s2.284,6.045,4.975,6.045c2.689,0,4.975-1.927,4.975-6.045
		S34.964,11.833,32.275,11.833z"/>
	<path fill="#05057C" d="M109.271,11.833c-2.688,0-4.975,1.927-4.975,6.045s2.285,6.045,4.975,6.045c2.69,0,4.976-1.927,4.976-6.045
		S111.96,11.833,109.271,11.833z"/>
	<path fill="#05057C" d="M0,0v35.754h128.434V0H0z M23.471,12.021h-4.664v14.187h-2.618V12.021h-4.665V9.547h11.947V12.021z
		 M32.275,26.398c-4.069,0-7.641-2.834-7.641-8.521c0-5.688,3.57-8.521,7.641-8.521c4.071,0,7.641,2.832,7.641,8.521
		C39.914,23.564,36.345,26.398,32.275,26.398z M51.977,26.208l-4.688-7.474H45.36v7.474h-2.617V9.548h5.831
		c3.142,0,4.927,1.761,4.927,4.593c0,2.285-1.167,3.856-3.237,4.403l4.809,7.664H51.977L51.977,26.208z M63.301,26.398
		c-4.07,0-7.641-2.834-7.641-8.521c0-5.688,3.569-8.521,7.641-8.521s7.64,2.832,7.64,8.521
		C70.941,23.564,67.371,26.398,63.301,26.398z M86.025,26.208h-2.808L76.386,14.26v11.948h-2.618V9.548h2.811l6.829,11.995V9.548
		h2.617V26.208z M100.467,12.021h-4.664v14.187h-2.617V12.021H88.52V9.547h11.947V12.021z M109.271,26.398
		c-4.068,0-7.641-2.834-7.641-8.521c0-5.688,3.571-8.521,7.641-8.521c4.07,0,7.641,2.832,7.641,8.521
		C116.91,23.564,113.341,26.398,109.271,26.398z"/>
</g>
</svg>
