<?xml version="1.0" encoding="utf-8"?>
<!-- Generator: Adobe Illustrator 16.0.0, SVG Export Plug-In . SVG Version: 6.00 Build 0)  -->
<!DOCTYPE svg PUBLIC "-//W3C//DTD SVG 1.1//EN" "http://www.w3.org/Graphics/SVG/1.1/DTD/svg11.dtd">
<svg version="1.1" id="Layer_1" xmlns="http://www.w3.org/2000/svg" xmlns:xlink="http://www.w3.org/1999/xlink" x="0px" y="0px"
	 width="300px" height="50px" viewBox="-85.783 -7.123 300 50" enable-background="new -85.783 -7.123 300 50" xml:space="preserve"
	>
<g>
	<path d="M4.882-61.622h12.922v2.924h-4.849V-44.4H9.732v-14.297h-4.85V-61.622z"/>
	<path d="M27.88-61.822c4.898,0,8.748,3.949,8.748,8.848c0,4.849-3.85,8.823-8.748,8.823s-8.723-3.975-8.723-8.823
		C19.157-57.873,22.982-61.822,27.88-61.822z M27.88-47.301c3.1,0,5.549-2.523,5.549-5.673s-2.449-5.699-5.549-5.699
		c-3.124,0-5.549,2.549-5.549,5.699S24.756-47.301,27.88-47.301z"/>
	<path d="M52.304-44.4h-3.85l-4.049-6.125h-1.324v6.125h-3.199v-17.221h6.898c3.799,0,5.498,2.774,5.498,5.574
		c0,2.474-1.324,4.897-4.374,5.397L52.304-44.4z M43.081-58.772v5.399h3.449c1.675,0,2.424-1.4,2.424-2.674
		c0-1.25-0.725-2.725-2.324-2.725H43.081z"/>
	<path d="M63.33-61.822c4.898,0,8.747,3.949,8.747,8.848c0,4.849-3.849,8.823-8.747,8.823c-4.899,0-8.724-3.975-8.724-8.823
		C54.607-57.873,58.431-61.822,63.33-61.822z M63.33-47.301c3.099,0,5.548-2.523,5.548-5.673s-2.449-5.699-5.548-5.699
		c-3.125,0-5.549,2.549-5.549,5.699S60.205-47.301,63.33-47.301z"/>
	<path d="M88.079-44.4h-2.925l-6.648-11.323V-44.4h-3.175v-17.221h2.975l6.574,11.198v-11.198h3.199V-44.4z"/>
	<path d="M90.932-61.622h12.922v2.924h-4.849V-44.4h-3.225v-14.297h-4.849V-61.622z"/>
	<path d="M113.929-61.822c4.9,0,8.748,3.949,8.748,8.848c0,4.849-3.848,8.823-8.748,8.823c-4.898,0-8.723-3.975-8.723-8.823
		C105.206-57.873,109.031-61.822,113.929-61.822z M113.929-47.301c3.1,0,5.549-2.523,5.549-5.673s-2.449-5.699-5.549-5.699
		c-3.123,0-5.548,2.549-5.548,5.699S110.806-47.301,113.929-47.301z"/>
</g>
<g>
	<path d="M-5.545-69.628h-3.849l-4.049-6.124h-1.325v6.124h-3.199v-17.221h6.898c3.799,0,5.499,2.774,5.499,5.574
		c0,2.474-1.325,4.898-4.374,5.398L-5.545-69.628z M-14.767-84v5.399h3.449c1.675,0,2.424-1.4,2.424-2.674
		c0-1.25-0.725-2.725-2.324-2.725H-14.767z"/>
	<path d="M-2.192-86.849H8.456V-84H0.983v4.474h6.548v2.824H0.983v4.224h7.723v2.849H-2.192V-86.849z"/>
	<path d="M26.73-72.877c-1.5,2.125-4.024,3.499-6.999,3.499c-4.898,0-8.673-3.974-8.673-8.823c0-4.899,3.774-8.848,8.673-8.848
		c2.924,0,5.424,1.325,6.923,3.399l-2.549,1.824c-1-1.299-2.549-2.199-4.374-2.199c-3.124,0-5.474,2.6-5.474,5.824
		c0,3.199,2.35,5.798,5.474,5.798c1.85,0,3.474-0.925,4.474-2.324L26.73-72.877z"/>
	<path d="M37.106-87.049c4.898,0,8.748,3.949,8.748,8.848c0,4.849-3.849,8.823-8.748,8.823c-4.899,0-8.723-3.974-8.723-8.823
		C28.383-83.1,32.207-87.049,37.106-87.049z M37.106-72.527c3.099,0,5.548-2.524,5.548-5.673c0-3.149-2.449-5.699-5.548-5.699
		c-3.125,0-5.549,2.549-5.549,5.699C31.557-75.052,33.982-72.527,37.106-72.527z"/>
	<path d="M63.904-86.849h2.75l2.099,17.221h-3.199L64.229-81.1l-4.499,9.522h-2.549L52.657-81.1l-1.35,11.472h-3.199l2.125-17.221
		h2.699l5.499,11.647L63.904-86.849z"/>
	<path d="M86.879-86.849h2.748l2.1,17.221h-3.199L87.203-81.1l-4.498,9.522h-2.55L75.631-81.1l-1.35,11.472h-3.199l2.125-17.221
		h2.699l5.498,11.647L86.879-86.849z"/>
	<path d="M95.057-86.849h10.648V-84h-7.475v4.474h6.549v2.824h-6.549v4.224h7.725v2.849H95.057V-86.849z"/>
	<path d="M122.104-69.628h-2.924l-6.648-11.322v11.322h-3.174v-17.221h2.975l6.572,11.197v-11.197h3.199V-69.628z"/>
	<path d="M126.406-69.628v-17.221h6.725c4.924,0,7.771,3.749,7.771,8.648c0,4.874-2.848,8.573-7.771,8.573H126.406z M129.606-72.552
		h3.525c3.049,0,4.572-2.549,4.572-5.648c0-3.125-1.523-5.724-4.572-5.724h-3.525V-72.552z"/>
	<path d="M153.504-73.802h-6.424l-1.574,4.174h-3.398l6.447-17.221h3.449l6.449,17.221h-3.375L153.504-73.802z M148.156-76.601
		h4.299l-2.176-6.574L148.156-76.601z"/>
	<path d="M159.156-86.849h12.922v2.924h-4.85v14.296h-3.223v-14.296h-4.85V-86.849z"/>
	<path d="M174.932-86.849h3.174v17.221h-3.174V-86.849z"/>
	<path d="M190.078-87.049c4.9,0,8.748,3.949,8.748,8.848c0,4.849-3.848,8.823-8.748,8.823c-4.898,0-8.723-3.974-8.723-8.823
		C181.356-83.1,185.18-87.049,190.078-87.049z M190.078-72.527c3.1,0,5.549-2.524,5.549-5.673c0-3.149-2.449-5.699-5.549-5.699
		c-3.123,0-5.547,2.549-5.547,5.699C184.531-75.052,186.955-72.527,190.078-72.527z"/>
	<path d="M214.828-69.628h-2.926l-6.648-11.322v11.322h-3.174v-17.221h2.975l6.574,11.197v-11.197h3.199V-69.628z"/>
	<path d="M221.33-74.652c0.049,1.25,1.125,2.424,2.975,2.424c1.725,0,2.773-0.899,2.85-2.074c0.074-1.15-0.701-1.899-2.375-2.35
		l-2.125-0.55c-3.748-1.1-4.35-3.274-4.35-4.799c0-3.024,2.625-5.049,5.799-5.049c3.25,0,5.725,1.975,5.725,5.199h-3.199
		c0-1.35-0.975-2.25-2.574-2.25c-1.426,0-2.574,0.8-2.574,2.025c0,0.55,0.199,1.475,2.049,1.974l2.125,0.625
		c3.848,1.05,4.848,3.224,4.699,5.249c-0.15,3.099-2.9,4.874-6.049,4.874c-3.674,0-6.174-2.35-6.174-5.299H221.33z"/>
</g>
<g>
	<polygon fill="#05057C" points="95.854,-145.818 100.154,-145.818 97.978,-152.393 	"/>
	<path fill="#05057C" d="M-22.696-172.456v50h150v-50H-22.696z M11.378-153.142H6.53v14.296H3.305v-14.296h-4.849v-2.925h12.922
		V-153.142z M27.528-138.846h-3.224v-7.123h-6.898v7.123h-3.174v-17.221h3.174v7.224h6.898v-7.224h3.224V-138.846z M42.728-138.846
		H31.831v-17.221h10.647v2.85h-7.473v4.474h6.548v2.825h-6.548v4.224h7.723V-138.846z M55.505-138.846H52.33v-17.221h3.175V-138.846
		z M66.529-138.846h-6.724v-17.221h6.724c4.924,0,7.773,3.749,7.773,8.648C74.302-142.545,71.452-138.846,66.529-138.846z
		 M88.552-138.846H77.656v-17.221h10.646v2.85h-7.473v4.474h6.549v2.825h-6.549v4.224h7.723V-138.846z M102.777-138.846
		l-1.574-4.174h-6.424l-1.574,4.174h-3.398l6.447-17.221h3.449l6.449,17.221H102.777z"/>
	<path fill="#05057C" d="M66.529-153.142h-3.524v11.372h3.524c3.049,0,4.574-2.549,4.574-5.648
		C71.103-150.543,69.577-153.142,66.529-153.142z"/>
</g>
<g>
	<path fill="#05057C" d="M147.133,12.179c-3.123,0-5.547,2.55-5.547,5.698c0,3.149,2.424,5.674,5.547,5.674
		c3.1,0,5.549-2.524,5.549-5.674C152.682,14.729,150.233,12.179,147.133,12.179z"/>
	<path fill="#05057C" d="M-4.24,12.179c-3.125,0-5.549,2.55-5.549,5.698c0,3.149,2.424,5.674,5.549,5.674
		c3.099,0,5.548-2.524,5.548-5.674C1.308,14.729-1.141,12.179-4.24,12.179z"/>
	<polygon fill="#05057C" points="106.51,19.477 110.809,19.477 108.633,12.903 	"/>
	<path fill="#05057C" d="M-85.783-7.123v50h300v-50H-85.783z M-50.415,26.45l-4.049-6.124h-1.325v6.124h-3.199V9.229h6.898
		c3.799,0,5.499,2.774,5.499,5.573c0,2.475-1.325,4.898-4.374,5.398l4.399,6.249H-50.415z M-32.316,26.45h-10.897V9.229h10.647
		v2.849h-7.473v4.475h6.548v2.824h-6.548v4.225h7.723V26.45z M-21.615,26.7c-4.898,0-8.673-3.974-8.673-8.823
		c0-4.898,3.774-8.848,8.673-8.848c2.924,0,5.424,1.324,6.923,3.399l-2.549,1.824c-1-1.3-2.549-2.199-4.374-2.199
		c-3.124,0-5.474,2.6-5.474,5.823c0,3.199,2.35,5.799,5.474,5.799c1.85,0,3.474-0.925,4.474-2.324l2.524,1.85
		C-16.116,25.326-18.64,26.7-21.615,26.7z M-4.24,26.7c-4.899,0-8.723-3.974-8.723-8.823c0-4.898,3.824-8.848,8.723-8.848
		c4.898,0,8.748,3.949,8.748,8.848C4.508,22.727,0.658,26.7-4.24,26.7z M24.208,26.45l-1.325-11.472L18.384,24.5h-2.549
		l-4.524-9.521L9.961,26.45H6.762L8.886,9.229h2.699l5.499,11.647l5.474-11.647h2.75l2.1,17.221H24.208z M47.182,26.45
		l-1.325-11.472L41.359,24.5h-2.549l-4.524-9.521l-1.35,11.472h-3.199l2.125-17.221h2.699l5.499,11.647l5.474-11.647h2.75
		l2.1,17.221H47.182z M64.608,26.45H53.711V9.229h10.647v2.849h-7.473v4.475h6.549v2.824h-6.549v4.225h7.723V26.45z M80.758,26.45
		h-2.926l-6.648-11.322V26.45H68.01V9.229h2.975l6.574,11.197V9.229h3.199V26.45z M91.783,26.45h-6.723V9.229h6.723
		c4.924,0,7.773,3.749,7.773,8.647C99.557,22.751,96.707,26.45,91.783,26.45z M113.432,26.45l-1.574-4.174h-6.424l-1.574,4.174
		h-3.398l6.447-17.221h3.449l6.449,17.221H113.432z M129.133,12.154h-4.85V26.45h-3.223V12.154h-4.85V9.229h12.922V12.154z
		 M135.16,26.45h-3.174V9.229h3.174V26.45z M147.133,26.7c-4.898,0-8.723-3.974-8.723-8.823c0-4.898,3.824-8.848,8.723-8.848
		c4.9,0,8.748,3.949,8.748,8.848C155.881,22.727,152.033,26.7,147.133,26.7z M171.883,26.45h-2.926l-6.648-11.322V26.45h-3.174
		V9.229h2.975l6.574,11.197V9.229h3.199V26.45z M187.408,21.852c-0.15,3.1-2.9,4.873-6.049,4.873c-3.674,0-6.174-2.35-6.174-5.299
		h3.199c0.049,1.25,1.125,2.425,2.975,2.425c1.725,0,2.773-0.899,2.85-2.074c0.074-1.149-0.701-1.899-2.375-2.35l-2.125-0.55
		c-3.748-1.1-4.35-3.273-4.35-4.799c0-3.024,2.625-5.049,5.799-5.049c3.25,0,5.725,1.975,5.725,5.199h-3.199
		c0-1.35-0.975-2.25-2.574-2.25c-1.426,0-2.574,0.8-2.574,2.025c0,0.549,0.199,1.475,2.049,1.974l2.125,0.625
		C186.557,17.652,187.557,19.826,187.408,21.852z"/>
	<path fill="#05057C" d="M91.783,12.154H88.26v11.371h3.523c3.049,0,4.574-2.549,4.574-5.648
		C96.358,14.753,94.832,12.154,91.783,12.154z"/>
	<path fill="#05057C" d="M-49.915,14.803c0-1.25-0.725-2.725-2.324-2.725h-3.549v5.399h3.449
		C-50.665,17.478-49.915,16.078-49.915,14.803z"/>
</g>
</svg>
